HIERARCHY
ROOT Hips
{
	OFFSET 0.000000 0.000000 0.000000
	CHANNELS 6 Xposition Yposition Zposition Zrotation Yrotation Xrotation 
	JOINT LHipJoint
	{
		OFFSET 0.000000 0.000000 0.000000
		CHANNELS 3 Zrotation Yrotation Xrotation
		JOINT LeftUpLeg
		{
			OFFSET 1.363060 -1.794630 0.839290
			CHANNELS 3 Zrotation Yrotation Xrotation
			JOINT LeftLeg
			{
				OFFSET 2.448110 -6.726130 0.000000
				CHANNELS 3 Zrotation Yrotation Xrotation
				JOINT LeftFoot
				{
					OFFSET 2.562200 -7.039590 0.000000
					CHANNELS 3 Zrotation Yrotation Xrotation
					JOINT LeftToeBase
					{
						OFFSET 0.157640 -0.433110 2.322550
						CHANNELS 3 Zrotation Yrotation Xrotation
						End Site
						{
							OFFSET 0.000000 0.000000 0.000000
						}
					}
				}
			}
		}
	}
	JOINT RHipJoint
	{
		OFFSET 0.000000 0.000000 0.000000
		CHANNELS 3 Zrotation Yrotation Xrotation
		JOINT RightUpLeg
		{
			OFFSET -1.305520 -1.794630 0.839290
			CHANNELS 3 Zrotation Yrotation Xrotation
			JOINT RightLeg
			{
				OFFSET -2.542530 -6.985550 0.000000
				CHANNELS 3 Zrotation Yrotation Xrotation
				JOINT RightFoot
				{
					OFFSET -2.568260 -7.056230 0.000000
					CHANNELS 3 Zrotation Yrotation Xrotation
					JOINT RightToeBase
					{
						OFFSET -0.164730 -0.452590 2.363150
						CHANNELS 3 Zrotation Yrotation Xrotation
						End Site
						{
							OFFSET 0.000000 0.000000 0.000000
						}
					}
				}
			}
		}
	}
	JOINT LowerBack
	{
		OFFSET 0.000000 0.000000 0.000000
		CHANNELS 3 Zrotation Yrotation Xrotation
		JOINT Spine
		{
			OFFSET 0.028270 2.035590 -0.193380
			CHANNELS 3 Zrotation Yrotation Xrotation
			JOINT Spine1
			{
				OFFSET 0.056720 2.048850 -0.042750
				CHANNELS 3 Zrotation Yrotation Xrotation
				JOINT Neck
				{
					OFFSET 0.000000 0.000000 0.000000
					CHANNELS 3 Zrotation Yrotation Xrotation
					JOINT Neck1
					{
						OFFSET -0.054170 1.746240 0.172020
						CHANNELS 3 Zrotation Yrotation Xrotation
						JOINT Head
						{
							OFFSET 0.104070 1.761360 -0.123970
							CHANNELS 3 Zrotation Yrotation Xrotation
							End Site
							{
								OFFSET 0.000000 0.000000 0.000000
							}
						}
					}
				}
				JOINT LeftShoulder
				{
					OFFSET 0.000000 0.000000 0.000000
					CHANNELS 3 Zrotation Yrotation Xrotation
					JOINT LeftArm
					{
						OFFSET 3.362410 1.200890 -0.311210
						CHANNELS 3 Zrotation Yrotation Xrotation
						JOINT LeftForeArm
						{
							OFFSET 4.983000 -0.000000 -0.000000
							CHANNELS 3 Zrotation Yrotation Xrotation
							JOINT LeftHand
							{
								OFFSET 3.483560 -0.000000 -0.000000
								CHANNELS 3 Zrotation Yrotation Xrotation
								JOINT LeftFingerBase
								{
									OFFSET 0.000000 0.000000 0.000000
									CHANNELS 3 Zrotation Yrotation Xrotation
									JOINT LeftHandIndex1
									{
										OFFSET 0.715260 -0.000000 -0.000000
										CHANNELS 3 Zrotation Yrotation Xrotation
										End Site
										{
											OFFSET 0.000000 0.000000 0.000000
										}
									}
								}
								JOINT LThumb
								{
									OFFSET 0.000000 0.000000 0.000000
									CHANNELS 3 Zrotation Yrotation Xrotation
									End Site
									{
										OFFSET 0.000000 0.000000 0.000000
									}
								}
							}
						}
					}
				}
				JOINT RightShoulder
				{
					OFFSET 0.000000 0.000000 0.000000
					CHANNELS 3 Zrotation Yrotation Xrotation
					JOINT RightArm
					{
						OFFSET -3.136600 1.374050 -0.404650
						CHANNELS 3 Zrotation Yrotation Xrotation
						JOINT RightForeArm
						{
							OFFSET -5.241900 -0.000000 -0.000000
							CHANNELS 3 Zrotation Yrotation Xrotation
							JOINT RightHand
							{
								OFFSET -3.444170 -0.000000 -0.000000
								CHANNELS 3 Zrotation Yrotation Xrotation
								JOINT RightFingerBase
								{
									OFFSET 0.000000 0.000000 0.000000
									CHANNELS 3 Zrotation Yrotation Xrotation
									JOINT RightHandIndex1
									{
										OFFSET -0.622530 -0.000000 -0.000000
										CHANNELS 3 Zrotation Yrotation Xrotation
										End Site
										{
											OFFSET 0.000000 0.000000 0.000000
										}
									}
								}
								JOINT RThumb
								{
									OFFSET 0.000000 0.000000 0.000000
									CHANNELS 3 Zrotation Yrotation Xrotation
									End Site
									{
										OFFSET 0.000000 0.000000 0.000000
									}
								}
							}
						}
					}
				}
			}
		}
	}
}
MOTION
Frames: 7
Frame Time: 0.008333
6.015398 16.267549 1.620333 177.943212 -85.247102 -156.307032 -11.695313 0.800726 0.108814 -7.734999 -1.083803 -38.684845 1.008562 3.895856 73.919462 3.936093 22.035951 -20.976599 -4.863600 -0.000000 -14.114400 8.410980 -1.136388 1.866878 14.032379 8.332309 -31.759563 2.120713 -2.226015 45.168658 -2.482837 -2.759569 -29.933024 2.152000 -0.000000 -16.537700 2.143489 -1.049971 -1.639680 -0.354623 -1.280617 -3.586992 -6.971233 -1.237349 -1.890492 11.292887 -9.121219 -8.171084 -3.604473 -0.264425 -0.223915 0.000000 0.000000 0.000000 2.749026 9.506088 0.491211 -75.935620 13.275450 26.330259 179.849291 -82.810992 179.933364 10.367551 -7.930237 -0.776349 -0.147921 0.527632 -0.000000 0.000000 0.000000 0.000000 0.000000 0.000000 0.000000 13.169633 -2.651616 -0.223082 74.845087 9.351657 33.939543 179.547470 80.581912 179.962116 -6.770978 17.384116 -1.110820 0.164802 -0.839255 -0.000000 0.000000 0.000000 0.000000 0.000000 0.000000 0.000000 
5.764861 16.349062 1.604033 175.023786 -85.257250 -153.338814 -11.532896 0.608929 0.352936 -7.968561 -1.761701 -39.808346 0.836542 3.748184 72.074234 3.977786 21.815655 -21.350517 -4.949800 -0.000000 -13.805400 8.391670 -1.235342 1.851296 13.754133 8.131563 -29.823389 2.159564 -2.027011 43.064936 -2.455226 -2.929885 -29.125263 2.117500 -0.000000 -17.039900 1.770062 -0.935203 -1.881601 -0.439073 -1.149670 -3.626730 -6.978263 -1.100175 -1.870719 11.175592 -9.000265 -8.129275 -3.510316 -0.258530 -0.205926 0.000000 0.000000 0.000000 3.033902 9.991880 0.446767 -75.136098 14.740224 26.807244 179.866040 -81.083393 179.936754 9.616357 -8.309833 -0.752762 -0.130965 0.539352 0.000000 0.000000 0.000000 0.000000 0.000000 0.000000 0.000000 12.354007 -2.319798 -0.315341 75.958943 10.403146 34.746956 179.468467 79.344156 179.964408 -6.310665 17.616113 -1.051218 0.159911 -0.873286 0.000000 0.000000 0.000000 0.000000 0.000000 0.000000 0.000000 
5.510188 16.440861 1.588936 172.338198 -85.306292 -150.582266 -11.354115 0.427798 0.612703 -8.150352 -2.424321 -40.812274 0.651227 3.570565 69.821044 4.022865 21.596468 -21.528111 -4.955500 0.000000 -13.729000 8.372740 -1.342486 1.849929 13.489434 7.955856 -27.857763 2.180682 -1.821446 40.792228 -2.410403 -3.158464 -27.982843 2.052800 0.000001 -17.940400 1.435730 -0.816399 -2.149887 -0.517659 -1.018317 -3.673476 -7.001117 -0.962806 -1.857041 11.062780 -8.912286 -8.098267 -3.416114 -0.252627 -0.190193 0.000000 0.000000 0.000000 3.340283 10.463602 0.395064 -74.303854 16.124844 27.363485 179.879797 -79.396577 179.939843 8.901094 -8.612137 -0.720596 -0.114017 0.550056 -0.000000 0.000000 0.000000 0.000000 0.000000 0.000000 0.000000 11.536946 -2.023743 -0.417250 77.057813 11.293234 35.412813 179.388091 78.112007 179.966679 -5.881084 17.777376 -0.990617 0.154918 -0.905156 0.000000 0.000000 0.000000 0.000000 0.000000 0.000000 0.000000 
5.251923 16.542217 1.575330 169.870663 -85.394681 -148.037949 -11.164231 0.263029 0.881791 -8.279051 -3.056769 -41.663519 0.457725 3.364497 67.154381 4.063452 21.349218 -21.466654 -4.858900 -0.000000 -13.915500 8.355922 -1.459639 1.851399 13.248477 7.773266 -25.856227 2.184340 -1.613938 38.360359 -2.338460 -3.413621 -26.448390 1.936000 0.000001 -19.375900 1.142475 -0.692225 -2.425931 -0.590987 -0.884762 -3.724377 -7.040238 -0.823527 -1.851231 10.959793 -8.852462 -8.072982 -3.326310 -0.247055 -0.175659 0.000000 0.000000 0.000000 3.656192 10.902891 0.336870 -73.464911 17.416221 27.945853 179.888714 -77.836515 179.942431 8.288900 -8.823784 -0.686342 -0.098620 0.558253 -0.000000 0.000000 0.000000 0.000000 0.000000 0.000000 0.000000 10.757453 -1.765716 -0.524477 78.103263 12.024724 35.938891 179.310676 76.931179 179.968689 -5.507888 17.863810 -0.934017 0.150325 -0.933784 0.000000 0.000000 0.000000 0.000000 0.000000 0.000000 0.000000 
4.990463 16.652170 1.563360 167.552473 -85.520789 -145.653798 -10.969215 0.120034 1.153431 -8.362582 -3.644029 -42.325000 0.260628 3.130719 64.068687 4.088945 21.037043 -21.117061 -4.635300 0.000000 -14.368800 8.343691 -1.589748 1.844091 13.033689 7.547448 -23.811230 2.171542 -1.410585 35.779813 -2.229311 -3.660038 -24.460433 1.745700 0.000000 -21.506200 0.888189 -0.563601 -2.691004 -0.660288 -0.749190 -3.778631 -7.095729 -0.682810 -1.864194 10.869135 -8.815303 -8.040189 -3.245349 -0.242295 -0.158802 0.000000 0.000000 0.000000 3.960944 11.255696 0.271000 -72.642591 18.661434 28.474983 179.890348 -76.434997 179.944368 7.821940 -8.944232 -0.655498 -0.085688 0.562900 -0.000000 0.000000 0.000000 0.000000 0.000000 0.000000 0.000000 10.047926 -1.545969 -0.627476 79.066415 12.600900 36.336439 179.239493 75.839120 179.970319 -5.203474 17.872285 -0.884319 0.146511 -0.958310 0.000000 0.000000 0.000000 0.000000 0.000000 0.000000 0.000000 
4.726264 16.769330 1.553081 165.299961 -85.682607 -143.360645 -10.775352 0.003066 1.421936 -8.413779 -4.171537 -42.766671 0.064753 2.869791 60.564702 4.086599 20.621549 -20.417888 -4.259101 0.000000 -15.179800 8.339098 -1.736079 1.818810 12.843597 7.244628 -21.726945 2.144179 -1.219383 33.072170 -2.075713 -3.863908 -21.969327 1.467400 -0.000000 -24.443200 0.666943 -0.433236 -2.931134 -0.726266 -0.613347 -3.830819 -7.162783 -0.542111 -1.884009 10.794320 -8.805007 -8.005163 -3.173638 -0.238252 -0.141459 0.000000 0.000000 0.000000 4.259082 11.552110 0.198340 -71.863691 19.822813 28.943444 179.885230 -75.245509 179.945616 7.535115 -8.980448 -0.633349 -0.076803 0.563549 -0.000000 0.000000 0.000000 0.000000 0.000000 0.000000 0.000000 9.426029 -1.373069 -0.726184 79.932862 13.048837 36.629384 179.177041 74.858737 179.971515 -4.967402 17.805941 -0.842428 0.143600 -0.978196 0.000000 0.000000 0.000000 0.000000 0.000000 0.000000 0.000000 
4.459928 16.892127 1.544165 162.839989 -85.877170 -140.904526 -10.586479 -0.085318 1.679779 -8.463061 -4.632466 -42.947671 -0.126390 2.580792 56.643858 4.043760 20.073837 -19.311165 -3.715401 -0.000000 -16.390800 8.350240 -1.901541 1.763627 12.658660 6.819995 -19.608114 2.104818 -1.051213 30.272143 -1.873376 -3.988579 -18.946721 1.098100 -0.000000 -28.237100 0.461600 -0.308860 -3.127455 -0.791678 -0.482794 -3.876976 -7.237569 -0.406835 -1.909473 10.737359 -8.820681 -7.964502 -3.112245 -0.235010 -0.123005 0.000000 0.000000 0.000000 4.551472 11.784711 0.120147 -71.146967 20.915980 29.319863 179.873741 -74.267807 179.946209 7.431228 -8.950545 -0.622086 -0.072356 0.560387 -0.000000 0.000000 0.000000 0.000000 0.000000 0.000000 0.000000 8.905030 -1.249818 -0.816544 80.699544 13.390856 36.841646 179.124055 74.006224 179.972375 -4.784865 17.665401 -0.806151 0.141416 -0.993107 0.000000 0.000000 0.000000 0.000000 0.000000 0.000000 0.000000 
